<svg width="500" height="500" viewBox="0 0 500 500" fill="none" xmlns="http://www.w3.org/2000/svg">
<rect width="500" height="500" rx="250" fill="url(#paint0_linear_46_272)"/>
<path d="M209 360.5C209 385.353 188.853 405.5 164 405.5C139.147 405.5 119 385.353 119 360.5C119 335.647 139.147 315.5 164 315.5C188.853 315.5 209 335.647 209 360.5Z" fill="white"/>
<path d="M382 140.5C382 165.353 361.853 185.5 337 185.5C312.147 185.5 292 165.353 292 140.5C292 115.647 312.147 95.5 337 95.5C361.853 95.5 382 115.647 382 140.5Z" fill="white"/>
<path d="M119 165.5C119 95.1 179.167 69.8333 208.5 66C153 125.5 179 171 270 204.5C361 238 391 287 379 349.5C369.4 399.5 325 427.333 304 435C375 329 250.5 302 208.5 278C170 256 119 253.5 119 165.5Z" fill="white"/>
<defs>
<linearGradient id="paint0_linear_46_272" x1="424.226" y1="4.10038e-05" x2="149.723" y2="-37.7482" gradientUnits="userSpaceOnUse">
<stop stop-color="#60A5FA"/>
<stop offset="1" stop-color="#8B5CF6"/>
</linearGradient>
</defs>
</svg>
